<svg xmlns="http://www.w3.org/2000/svg" width="2400" height="480" clip-path="url(#clip)" viewBox="0 0 400 80" style="max-height:580.5px"><defs><clipPath id="clip" clipPathUnits="objectBoundingBox"><rect width="400" height="80" x="0" y="0"/></clipPath></defs><rect width="400" height="80" x="0" y="0" fill="#79705B"/><filter id="g0.6"><feGaussianBlur stdDeviation=".6"/></filter><filter id="g1"><feGaussianBlur stdDeviation="1"/></filter><filter id="g10"><feGaussianBlur stdDeviation="10"/></filter><path fill="#E6BC6E" fill-opacity=".5" d="M202,28L220,146L352,124L334,6Z" filter="url(#g1)"/><path fill="#C19140" fill-opacity=".5" d="M228,29L53,49L67,176L242,156Z"/><path fill="#795D29" fill-opacity=".5" d="M276,74L303,113L599,-88L572,-127Z"/><path fill="#483E2A" fill-opacity=".5" d="M10,10L22,62L254,8L242,-43Z"/><path fill="#948E82" fill-opacity=".5" d="M174,77L183,212L413,194L404,59Z"/><path fill="#B7ADA4" fill-opacity=".5" d="M120,68L114,149L227,155L233,74Z"/><path fill="#7E5920" fill-opacity=".5" d="M127,61L194,69L199,25L132,17Z"/><path fill="#A39585" fill-opacity=".5" d="M128,67L0,73L4,147L132,141Z" filter="url(#g1)"/><path fill="#E9CD90" fill-opacity=".5" d="M189,32L191,51L346,30L344,11Z"/><path fill="#F0C672" fill-opacity=".5" d="M146,48L306,55L306,46L146,39Z"/><path fill="#81683F" fill-opacity=".5" d="M199,61L206,214L345,207L338,54Z" filter="url(#g1)"/><path fill="#A99D89" fill-opacity=".5" d="M297,71L84,75L84,105L297,101Z"/><path fill="#5D4B28" fill-opacity=".5" d="M373,51L459,109L565,-47L479,-105Z"/><path fill="#353227" fill-opacity=".5" d="M22,26L-173,35L-171,65L23,56Z"/><path fill="#9C7224" fill-opacity=".5" d="M68,51L-35,65L-32,79L70,65Z" filter="url(#g1)"/><path fill="#6A6D58" fill-opacity=".5" d="M333,5L470,65L505,-16L368,-76Z"/><path fill="#C2994D" fill-opacity=".5" d="M213,11L184,44L201,58L230,25Z"/><path fill="#D9AB37" fill-opacity=".5" d="M82,50L84,61L147,44L145,33Z"/><path fill="#6D644F" fill-opacity=".5" d="M30,26L107,43L170,-238L93,-255Z"/><path fill="#CDC5B4" fill-opacity=".5" d="M321,25L276,50L281,59L326,34Z"/><path fill="#4C4741" fill-opacity=".5" d="M117,13L142,40L167,16L142,-10Z"/><path fill="#78530D" fill-opacity=".5" d="M357,44L553,92L555,80L359,32Z"/><path fill="#A29478" fill-opacity=".5" d="M338,73L103,64L96,243L331,252Z"/><path fill="#695E46" fill-opacity=".5" d="M91,9L304,21L311,-119L98,-131Z" filter="url(#g0.6)"/></svg>