<svg xmlns="http://www.w3.org/2000/svg" width="920" height="670.833" clip-path="url(#clip)" viewBox="0 0 400 291.667" style="max-height:580.5px"><defs><clipPath id="clip" clipPathUnits="objectBoundingBox"><rect width="400" height="291.667" x="0" y="0"/></clipPath></defs><rect width="400" height="291.667" x="0" y="0" fill="#736B55"/><filter id="g0.6"><feGaussianBlur stdDeviation=".6"/></filter><filter id="g1"><feGaussianBlur stdDeviation="1"/></filter><filter id="g10"><feGaussianBlur stdDeviation="10"/></filter><path fill="#D7AC5E" fill-opacity=".5" d="M149,136L281,342L458,227L326,21Z" filter="url(#g1)"/><path fill="#4D360D" fill-opacity=".5" d="M315,141L348,249L445,218L412,110Z"/><path fill="#C09247" fill-opacity=".5" d="M111,124L23,293L186,376L274,207Z" filter="url(#g10)"/><path fill="#E6C98E" fill-opacity=".5" d="M335,64L202,67L205,204L338,201Z"/><path fill="#403323" fill-opacity=".5" d="M127,7L86,114L174,147L215,40Z" filter="url(#g1)"/><path fill="#563102" fill-opacity=".5" d="M158,163L128,195L208,265L238,233Z" filter="url(#g10)"/><path fill="#A89D8D" fill-opacity=".5" d="M79,221L63,290L301,341L317,272Z"/><path fill="#453E2B" fill-opacity=".5" d="M49,25L-119,44L-97,221L70,202Z"/><path fill="#745418" fill-opacity=".5" d="M366,82L277,239L317,261L406,104Z" filter="url(#g10)"/><path fill="#7A786F" fill-opacity=".5" d="M283,280L373,384L476,294L386,190Z"/><path fill="#6C5229" fill-opacity=".5" d="M368,186L214,242L221,261L375,205Z" filter="url(#g1)"/><path fill="#59523F" fill-opacity=".5" d="M17,27L41,114L271,48L247,-38Z" filter="url(#g10)"/><path fill="#A27626" fill-opacity=".5" d="M80,180L-6,221L19,274L105,233Z"/><path fill="#BB9541" fill-opacity=".5" d="M270,49L41,209L58,234L287,74Z" filter="url(#g10)"/><path fill="#5B5542" fill-opacity=".5" d="M66,29L-77,100L-18,217L124,146Z" filter="url(#g10)"/><path fill="#948C85" fill-opacity=".5" d="M48,251L-27,277L81,578L156,552Z"/><path fill="#B2A492" fill-opacity=".5" d="M83,262L83,351L228,350L228,261Z" filter="url(#g10)"/><path fill="#FFFDD7" fill-opacity=".5" d="M219,111L217,141L252,142L254,112Z"/><path fill="#665C42" fill-opacity=".5" d="M167,25L272,86L321,0L216,-60Z" filter="url(#g1)"/><path fill="#DCCCA5" fill-opacity=".5" d="M337,38L304,41L312,118L345,115Z"/><path fill="#EBD091" fill-opacity=".5" d="M277,73L222,89L232,123L287,107Z" filter="url(#g10)"/><path fill="#64523A" fill-opacity=".5" d="M90,130L184,151L199,80L105,59Z" filter="url(#g1)"/><path fill="#948059" fill-opacity=".5" d="M255,77L296,93L322,26L281,10Z" filter="url(#g1)"/><path fill="#997E45" fill-opacity=".5" d="M31,237L29,251L300,271L302,257Z"/></svg>