<svg xmlns="http://www.w3.org/2000/svg" id="Layer_1" data-name="Layer 1" viewBox="0 0 571 386.68"><defs><style>.cls-1{fill:#69635c}.cls-10,.cls-11,.cls-12,.cls-13,.cls-14,.cls-15,.cls-16,.cls-17,.cls-18,.cls-19,.cls-2,.cls-20,.cls-21,.cls-22,.cls-23,.cls-24,.cls-25,.cls-26,.cls-27,.cls-28,.cls-29,.cls-3,.cls-30,.cls-4,.cls-5,.cls-6,.cls-7,.cls-8,.cls-9{fill-opacity:.5}.cls-3{fill:#000003}.cls-4{fill:#fff}.cls-5{fill:#ffefdf}.cls-6{fill:#090000}.cls-7{fill:#191310}.cls-8{fill:#fffffe}.cls-9{fill:#f7e5d7}.cls-10{fill:#c3b19d}.cls-11{fill:#e1cdb8}.cls-12{fill:#a99982}.cls-13{fill:#000a1b}.cls-14{fill:#180b00}.cls-15{fill:#acb0a3}.cls-16{fill:#a6a298}.cls-17{fill:#fff8f5}.cls-18{fill:#2c2114}.cls-19{fill:#26140b}.cls-20{fill:#87583f}.cls-21{fill:#a3ada3}.cls-22{fill:#2b1a03}.cls-23{fill:#622502}.cls-24{fill:#0b1c2a}.cls-25{fill:#ab967e}.cls-26{fill:#4a2216}.cls-27{fill:#00000f}.cls-28{fill:#fffffa}.cls-29{fill:#f8e6e1}.cls-30{fill:#7f4d37}</style></defs><rect width="571" height="386.68" class="cls-1"/><path d="M364,255.52,708,596.7l142.75-147-344-341.17Z" class="cls-2"/><path d="M391.14,137,404,398.27l168.45-10L559.58,127.05Z" class="cls-3"/><path d="M37.12,155.6H-10L1.43,585.28H48.54Z" class="cls-4"/><path d="M188.43,2.86,108.49,58.53l155.6,215.55L344,218.41Z" class="cls-5"/><path d="M10,208.42l70,112.77,131.33-82.8-70-112.77Z" class="cls-6"/><path d="M227,7.14,385.43,326.9,498.2,269.8,339.75-48.54Z" class="cls-7"/><path d="M237,247l-47.11,4.28L202.71,394l47.1-4.28Z" class="cls-8"/><path d="M38.54,98.5-119.91,84.22l-25.7,295.5L11.42,394Z" class="cls-9"/><path d="M376.86,318.33,311.2,372.58l47.1,55.67L424,374Z" class="cls-10"/><path d="M101.35,60-114.2,207l28.55,40,214.13-147Z" class="cls-11"/><path d="M32.83,60,175.58,137,238.39,20,95.64-55.67Z" class="cls-12"/><path d="M399.7,104.21,356.88,302.63l261.23,54.25,42.82-198.43Z" class="cls-13"/><path d="M15.7,187l91.36,112.78,68.52-57.1L84.22,129.9Z" class="cls-14"/><path d="M496.77,134.19l541-132.76-18.55-75.66L478.21,57.1Z" class="cls-15"/><path d="M281.22,195.57l34.26,35.69L461.08,88.51,426.82,52.82Z" class="cls-16"/><path d="M232.68,154.17l84.23,95.64,28.55-27.12-84.23-95.64Z" class="cls-17"/><path d="M298.35,77.09,257,105.64,372.58,265.52,414,237Z" class="cls-18"/><path d="M47.11,178.44l-24.27,4.28L75.66,461.08l24.27-4.28Z" class="cls-19"/><path d="M142.75,151.32,129.9,331.18l78.52,4.28L221.26,155.6Z" class="cls-20"/><path d="M543.88,147,611,281.22,1002.11,87.08,935-45.68Z" class="cls-21"/><path d="M449.66,61.38l42.83,10,31.4-139.9-42.82-10Z" class="cls-22"/><path d="M104.21,316.91l-4.28,71.37,45.68,1.43,4.28-71.38Z" class="cls-23"/><path d="M389.71,102.78l12.85,308.34,55.67-2.85L445.38,99.93Z" class="cls-24"/><path d="M18.56,37.12,4.28,71.38l159.88,60,14.28-34.26Z" class="cls-25"/><path d="M261.23,225.55,247,555.3l40,1.43L301.2,227Z" class="cls-26"/><path d="M426.82,325.47,538.17,469.65l147-117.06L573.86,208.42Z" class="cls-27"/><path d="M282.65,151.32,187,364l24.27,10,95.64-212.7Z" class="cls-28"/><path d="M249.81,135.61l-40,22.84,61.39,102.78,40-22.84Z" class="cls-29"/><path d="M178.44,174.16l57.1,68.52,18.56-17.13L197,157Z" class="cls-30"/></svg>