<svg xmlns="http://www.w3.org/2000/svg" xmlns:xlink="http://www.w3.org/1999/xlink" id="Layer_1" data-name="Layer 1" viewBox="0 0 720 153.39"><defs><style>.cls-1{fill:#646f83}.cls-2{filter:url(#g1)}.cls-3{fill:#b8bddb}.cls-12,.cls-15,.cls-16,.cls-17,.cls-21,.cls-26,.cls-27,.cls-29,.cls-3,.cls-34,.cls-35,.cls-36,.cls-37,.cls-38,.cls-8{opacity:.5}.cls-4{fill:#193950}.cls-10,.cls-11,.cls-13,.cls-14,.cls-18,.cls-19,.cls-20,.cls-22,.cls-23,.cls-24,.cls-25,.cls-30,.cls-31,.cls-32,.cls-33,.cls-4,.cls-5,.cls-6,.cls-9{fill-opacity:.5}.cls-5{fill:#a5b7d8}.cls-6{fill:#3c5468}.cls-7{filter:url(#g0.6)}.cls-8{fill:#573324}.cls-9{fill:#9ca0b3}.cls-10{fill:#526b84}.cls-11{fill:#7685b0}.cls-12{fill:#2b3f51}.cls-13{fill:#9992a1}.cls-14{fill:#fff}.cls-15{fill:#adb8d6}.cls-16{fill:#26314e}.cls-17{fill:#233767}.cls-18{fill:#20335f}.cls-19{fill:#c1cceb}.cls-20{fill:#cfd9f5}.cls-21{fill:#516477}.cls-22{fill:#78829f}.cls-23{fill:#f9f4ff}.cls-24{fill:#787d83}.cls-25{fill:#1a2047}.cls-26{fill:#455274}.cls-27{fill:#8595bd}.cls-28{filter:url(#g10)}.cls-29{fill:#adb3c4}.cls-30{fill:#ddf0ff}.cls-31{fill:#ced2f4}.cls-32{fill:#68809b}.cls-33{fill:#757686}.cls-34{fill:#5c6489}.cls-35{fill:#747e9d}.cls-36{fill:#b4c0e0}.cls-37{fill:#36303c}.cls-38{fill:#445867}</style><filter id="g1" name="g1"><feGaussianBlur stdDeviation="1"/></filter><filter id="g0.6" name="g0.6"><feGaussianBlur stdDeviation=".6"/></filter><filter id="g10" name="g10"><feGaussianBlur stdDeviation="10"/></filter></defs><rect width="720" height="153.39" class="cls-1"/><g class="cls-2"><polygon points="426.6 113.4 518.4 360 990 180 898.2 -64.8 426.6 113.4" class="cls-3"/></g><path d="M138.6,10.8-32.4-3.6l-50.4,621L86.4,631.8Z" class="cls-4"/><path d="M327.6,3.6l43.2,124.2,72-27L399.6-21.6Z" class="cls-5"/><path d="M37.8,3.6-12.6,167.4,379.8,288l50.4-163.8Z" class="cls-6"/><g class="cls-7"><polygon points="430.2 12.6 520.2 86.4 707.4 -145.8 617.4 -219.6 430.2 12.6" class="cls-8"/></g><path d="M554.4,82.8l174.6,54L853.2-271.8l-174.6-54Z" class="cls-9"/><path d="M41.4,73.8l117,48.6L286.2-189l-117-48.6Z" class="cls-10"/><path d="M444.6,73.8,424.8,176.4,567,199.8,586.8,97.2Z" class="cls-11"/><g class="cls-2"><polygon points="34.2 55.8 -37.8 133.2 329.4 468 401.4 390.6 34.2 55.8" class="cls-12"/></g><path d="M509.4,16.2,885.6,64.8l1.8-27L511.2-9Z" class="cls-13"/><path d="M435.6,138.6l-16.2,9L432,163.8l16.2-9Z" class="cls-14"/><g class="cls-7"><polygon points="523.8 106.2 603 140.4 622.8 90 543.6 55.8 523.8 106.2" class="cls-15"/></g><g class="cls-2"><polygon points="538.2 124.2 248.4 239.4 336.6 464.4 626.4 349.2 538.2 124.2" class="cls-16"/></g><g class="cls-7"><polygon points="597.6 30.6 608.4 41.4 837 -171 826.2 -181.8 597.6 30.6" class="cls-17"/></g><path d="M586.8,34.2l-3.6,48.6,39.6,1.8L626.4,36Z" class="cls-18"/><path d="M585,117,324,304.2,376.2,378l261-187.2Z" class="cls-19"/><path d="M511.2,111.6,383.4,163.8l7.2,19.8,127.8-52.2Z" class="cls-20"/><g class="cls-2"><polygon points="88.2 81 86.4 122.4 390.6 122.4 392.4 81 88.2 81" class="cls-21"/></g><path d="M444.6,102.6l214.2,55.8,9-39.6L453.6,63Z" class="cls-22"/><path d="M442.8,127.8l-21.6,3.6,61.2,288,21.6-3.6Z" class="cls-23"/><path d="M622.8,109.8l-41.4,64.8,86.4,52.2L709.2,162Z" class="cls-24"/><path d="M446.4,84.6l-297,352.8,9,7.2,297-352.8Z" class="cls-25"/><g class="cls-2"><polygon points="543.6 122.4 561.6 138.6 592.2 104.4 574.2 88.2 543.6 122.4" class="cls-26"/></g><g class="cls-7"><polygon points="487.8 61.2 448.2 75.6 469.8 131.4 509.4 117 487.8 61.2" class="cls-27"/></g><g class="cls-28"><polygon points="653.4 70.2 702 151.2 847.8 63 799.2 -16.2 653.4 70.2" class="cls-29"/></g><path d="M583.2,27,621,19.8,576-275.4l-37.8,7.2Z" class="cls-30"/><path d="M396,113.4l23.4,3.6L442.8-43.2l-23.4-3.6Z" class="cls-31"/><path d="M144,0,347.4,70.2l79.2-234L223.2-234Z" class="cls-32"/><path d="M648,1.8l473.4,432,306-336.6L954-333Z" class="cls-33"/><g class="cls-28"><polygon points="378 122.4 388.8 124.2 489.6 -210.6 478.8 -212.4 378 122.4" class="cls-34"/></g><g class="cls-28"><polygon points="468 63 642.6 214.2 646.2 208.8 471.6 57.6 468 63" class="cls-35"/></g><g class="cls-28"><polygon points="538.2 124.2 550.8 372.6 619.2 367.2 606.6 118.8 538.2 124.2" class="cls-36"/></g><g class="cls-2"><polygon points="441 25.2 439.2 64.8 541.8 64.8 543.6 25.2 441 25.2" class="cls-37"/></g><g class="cls-2"><rect width="365.47" height="277.25" x="71.06" y="163.77" class="cls-38" transform="translate(-53.54 550.19) rotate(-88.87)"/></g></svg>