<svg xmlns="http://www.w3.org/2000/svg" width="728" height="493.774" clip-path="url(#clip)" viewBox="0 0 400 271.304" style="max-height:549px"><defs><clipPath id="clip" clipPathUnits="objectBoundingBox"><rect width="400" height="271.304" x="0" y="0"/></clipPath></defs><rect width="400" height="271.304" x="0" y="0" fill="#8695A1"/><filter id="g0.6"><feGaussianBlur stdDeviation=".6"/></filter><filter id="g1"><feGaussianBlur stdDeviation="1"/></filter><filter id="g10"><feGaussianBlur stdDeviation="10"/></filter><path fill="#EBEBF3" fill-opacity=".5" d="M6,92L365,191L425,-28L66,-127Z"/><path fill="#505551" fill-opacity=".5" d="M70,161L42,293L440,373L468,241Z" filter="url(#g10)"/><path fill="#F3EFF1" fill-opacity=".5" d="M7,11L-147,196L-78,252L75,67Z" filter="url(#g10)"/><path fill="#CAC4C1" fill-opacity=".5" d="M91,53L37,172L136,216L190,97Z"/><path fill="#596466" fill-opacity=".5" d="M98,168L-31,198L2,335L131,305Z" filter="url(#g1)"/><path fill="#9A9B99" fill-opacity=".5" d="M361,127L62,156L69,234L368,205Z" filter="url(#g10)"/><path fill="#BEC5CA" fill-opacity=".5" d="M206,53L250,190L420,135L376,-1Z"/><path fill="#4D5D5F" fill-opacity=".5" d="M209,267L294,505L734,346L649,108Z"/><path fill="#C8CDD6" fill-opacity=".5" d="M17,2L47,168L128,152L98,-13Z"/><path fill="#EAE6E2" fill-opacity=".5" d="M331,27L238,184L258,195L351,38Z"/><path fill="#4C5A5E" fill-opacity=".5" d="M245,234L-11,236L-9,358L246,356Z"/><path fill="#808892" fill-opacity=".5" d="M243,45L198,219L233,227L278,53Z" filter="url(#g1)"/><path fill="#97B0CE" fill-opacity=".5" d="M195,31L391,78L434,-98L238,-145Z"/><path fill="#CBCED2" fill-opacity=".5" d="M216,121L453,115L451,57L214,63Z" filter="url(#g1)"/><path fill="#8F9595" fill-opacity=".5" d="M391,122L310,169L348,235L429,188Z"/><path fill="#9A9C9E" fill-opacity=".5" d="M32,92L-26,178L22,210L80,124Z" filter="url(#g10)"/><path fill="#727A82" fill-opacity=".5" d="M72,232L109,256L159,179L122,155Z" filter="url(#g1)"/><path fill="#92959A" fill-opacity=".5" d="M149,155L174,194L282,122L257,83Z" filter="url(#g1)"/><path fill="#BFCBDE" fill-opacity=".5" d="M3,11L149,122L244,-4L98,-115Z"/><path fill="#DADBD8" fill-opacity=".5" d="M380,53L255,143L278,175L403,85Z"/><path fill="#FBF7F2" fill-opacity=".5" d="M97,45L-57,117L-51,129L102,57Z" filter="url(#g1)"/><path fill="#7F9EBA" fill-opacity=".5" d="M369,10L442,132L499,96L426,-25Z"/><path fill="#A3B1C6" fill-opacity=".5" d="M77,45L294,77L298,46L81,14Z"/><path fill="#C6CDD5" fill-opacity=".5" d="M349,22L303,37L325,106L371,91Z" filter="url(#g1)"/><path fill="#767F82" fill-opacity=".5" d="M151,196L152,245L470,232L469,183Z" filter="url(#g1)"/><path fill="#AFB2B8" fill-opacity=".5" d="M121,31L48,109L79,138L152,60Z"/><path fill="#586874" fill-opacity=".5" d="M232,131L213,132L217,197L236,196Z" filter="url(#g1)"/><path fill="#CDE1FA" fill-opacity=".5" d="M28,6L-114,-43L-125,-8L16,40Z"/><path fill="#C8D1E4" fill-opacity=".5" d="M97,42L104,58L359,-52L352,-68Z"/><path fill="#888E93" fill-opacity=".5" d="M15,168L10,207L119,218L124,179Z" filter="url(#g1)"/><path fill="#E2DCD4" fill-opacity=".5" d="M154,77L125,82L132,126L161,121Z" filter="url(#g1)"/><path fill="#4B5B63" fill-opacity=".5" d="M21,228L-98,311L-7,438L111,355Z"/><path fill="#F1F2FB" fill-opacity=".5" d="M29,34L-130,107L-124,118L34,45Z" filter="url(#g1)"/><path fill="#ACB2B5" fill-opacity=".5" d="M344,118L359,177L422,160L407,101Z" filter="url(#g1)"/><path fill="#E2E1E6" fill-opacity=".5" d="M128,36L-32,84L-28,96L131,48Z"/><path fill="#CFD0D5" fill-opacity=".5" d="M11,41L-15,59L33,129L59,111Z"/><path fill="#DADFE9" fill-opacity=".5" d="M223,30L228,45L270,28L265,13Z" filter="url(#g1)"/><path fill="#4E5C5F" fill-opacity=".5" d="M149,255L147,352L428,355L430,258Z"/><path fill="#F0F0F4" fill-opacity=".5" d="M295,73L311,82L332,41L316,32Z" filter="url(#g1)"/></svg>