<svg xmlns="http://www.w3.org/2000/svg" width="644" height="461.373" clip-path="url(#clip)" viewBox="0 0 400 286.567" style="max-height:513px"><defs><clipPath id="clip" clipPathUnits="objectBoundingBox"><rect width="400" height="286.567" x="0" y="0"/></clipPath></defs><rect width="400" height="286.567" x="0" y="0" fill="#26432A"/><filter id="g0.6"><feGaussianBlur stdDeviation=".6"/></filter><filter id="g1"><feGaussianBlur stdDeviation="1"/></filter><filter id="g10"><feGaussianBlur stdDeviation="10"/></filter><path fill="#478632" fill-opacity=".5" d="M71,34L325,228L414,111L160,-82Z"/><path fill="#092100" fill-opacity=".5" d="M39,103L-69,258L142,404L250,249Z"/><path fill="#326712" fill-opacity=".5" d="M117,185L329,202L337,97L125,80Z" filter="url(#g1)"/><path fill="#577140" fill-opacity=".5" d="M351,223L193,295L216,345L374,273Z"/><path fill="#374075" fill-opacity=".5" d="M172,11L391,61L431,-112L212,-162Z" filter="url(#g1)"/><path fill="#234E0D" fill-opacity=".5" d="M121,21L6,94L114,263L229,190Z"/><path fill="#4E922C" fill-opacity=".5" d="M226,137L236,161L420,83L410,59Z"/><path fill="#0E2B00" fill-opacity=".5" d="M50,91L-84,149L18,382L152,324Z" filter="url(#g0.6)"/><path fill="#598352" fill-opacity=".5" d="M173,10L210,59L277,7L240,-41Z"/><path fill="#5B653F" fill-opacity=".5" d="M375,233L360,362L532,381L547,252Z"/><path fill="#3C4E29" fill-opacity=".5" d="M214,145L291,265L341,231L264,111Z" filter="url(#g0.6)"/><path fill="#0D1316" fill-opacity=".5" d="M21,19L-89,141L-44,180L65,58Z"/><path fill="#459027" fill-opacity=".5" d="M311,62L78,89L80,113L313,86Z" filter="url(#g1)"/><path fill="#52A62F" fill-opacity=".5" d="M33,17L93,19L99,-139L39,-141Z"/><path fill="#0F0619" fill-opacity=".5" d="M335,215L387,241L403,209L351,183Z"/><path fill="#151B42" fill-opacity=".5" d="M107,80L112,96L354,16L349,0Z" filter="url(#g0.6)"/><path fill="#3E7C2D" fill-opacity=".5" d="M279,116L383,196L401,172L297,92Z"/><path fill="#488C33" fill-opacity=".5" d="M146,0L203,84L226,68L169,-15Z"/><path fill="#5BB52D" fill-opacity=".5" d="M272,42L274,76L328,71L326,37Z" filter="url(#g1)"/><path fill="#111829" fill-opacity=".5" d="M337,125L343,138L451,84L445,71Z"/><path fill="#8BDC45" fill-opacity=".5" d="M374,83L450,138L459,124L383,69Z"/><path fill="#111C07" fill-opacity=".5" d="M230,244L-224,223L-236,483L217,504Z" filter="url(#g0.6)"/><path fill="#120C41" fill-opacity=".5" d="M240,125L256,141L301,96L285,80Z"/><path fill="#2F6A24" fill-opacity=".5" d="M196,282L199,343L399,329L396,268Z"/><path fill="#2E2021" fill-opacity=".5" d="M197,254L279,261L283,216L201,209Z" filter="url(#g10)"/><path fill="#3E871F" fill-opacity=".5" d="M229,154L257,201L333,155L305,108Z" filter="url(#g10)"/><path fill="#1B2048" fill-opacity=".5" d="M314,88L325,96L497,-132L486,-140Z" filter="url(#g1)"/><path fill="#1B3F14" fill-opacity=".5" d="M29,61L-248,404L-184,455L92,112Z" filter="url(#g10)"/><path fill="#234A17" fill-opacity=".5" d="M29,274L50,286L141,126L120,114Z" filter="url(#g1)"/></svg>