<svg xmlns="http://www.w3.org/2000/svg" id="Layer_1" data-name="Layer 1" viewBox="0 0 736 180.7"><defs><style>.cls-1{fill:#38977b}.cls-2{fill:red}.cls-10,.cls-11,.cls-12,.cls-13,.cls-14,.cls-15,.cls-16,.cls-2,.cls-3,.cls-4,.cls-5,.cls-6,.cls-7,.cls-8,.cls-9{fill-opacity:.5}.cls-3{fill:#2f84ff}.cls-4{fill:#ff321c}.cls-5{fill:#00c626}.cls-6{fill:#00c61c}.cls-7{fill:#3584de}.cls-8{fill:#405ae8}.cls-9{fill:#16d1f6}.cls-10{fill:#00b34a}.cls-11{fill:#f43a28}.cls-12{fill:#20ceff}.cls-13{fill:#1cbad1}.cls-14{fill:#1bd5d0}.cls-15{fill:#00ae47}.cls-16{fill:#465fb4}</style></defs><rect width="736" height="180.7" class="cls-1"/><path d="M244.72,70.84,517,201.48,621.92-19.32,349.6-150Z" class="cls-2"/><path d="M241,108.56,202.4,265l412.16,95.68,38.64-156.4Z" class="cls-3"/><path d="M279.32,115l285.2,101.2L612.36,76.36,327.16-23Z" class="cls-4"/><path d="M187.24-36.8l-493.12-11-11,513.36,491.28,11Z" class="cls-5"/><path d="M583.28,138l283.36,38.64L890.56-9.2,607.2-47.84Z" class="cls-6"/><path d="M202.4,16.56l42.32,292.56,103-16.56L305.44,0Z" class="cls-7"/><path d="M195,58.88,46,439.76l60.72,22.08L255.76,81Z" class="cls-8"/><path d="M150.88,185.11l88.32,88.32L522.56-4.41,434.24-92.73Z" class="cls-9"/><path d="M359.52,245.64l248.4,22.08,35-395.6L394.48-150Z" class="cls-10"/><path d="M501.2,222.64l292.56,69.92,42.32-174.8L543.52,47.84Z" class="cls-11"/><path d="M92,9.2,174.8,35l16.56-55.2L108.56-46Z" class="cls-12"/><path d="M38.64,84.64l121.44,69.92L244.72,11,123.28-58.88Z" class="cls-13"/><path d="M423.2,117.76l-68.08,441.6,219,33.12,68.08-441.6Z" class="cls-14"/><path d="M101.2,1.84-165.6,71.76-14.72,625.6l265-69.92Z" class="cls-15"/><path d="M320.52,8.14,228.38,175.07,424.8,278.66l92.14-166.93Z" class="cls-16"/></svg>