<svg xmlns="http://www.w3.org/2000/svg" id="Layer_1" data-name="Layer 1" viewBox="0 0 680 147.05"><defs><style>.cls-1{fill:#8f6e5f}.cls-2{fill:#000718}.cls-10,.cls-11,.cls-12,.cls-13,.cls-14,.cls-15,.cls-16,.cls-17,.cls-18,.cls-19,.cls-2,.cls-20,.cls-21,.cls-22,.cls-23,.cls-24,.cls-25,.cls-26,.cls-27,.cls-28,.cls-29,.cls-3,.cls-30,.cls-31,.cls-32,.cls-33,.cls-34,.cls-35,.cls-4,.cls-5,.cls-6,.cls-7,.cls-8,.cls-9{fill-opacity:.5}.cls-3{fill:#ffad5f}.cls-4{fill:#542737}.cls-5{fill:#ca9e90}.cls-6{fill:#5c3f2f}.cls-7{fill:#181a22}.cls-8{fill:#a34d3c}.cls-9{fill:#f3c6a0}.cls-10{fill:#695f5d}.cls-11{fill:#b4964a}.cls-12{fill:#26141b}.cls-13{fill:#756066}.cls-14{fill:#ba8e50}.cls-15{fill:#915e59}.cls-16{fill:#705360}.cls-17{fill:#a1878f}.cls-18{fill:#522f1f}.cls-19{fill:#857b7b}.cls-20{fill:#2a252c}.cls-21{fill:#df8a4b}.cls-22{fill:#87686d}.cls-23{fill:#49452f}.cls-24{fill:#fff}.cls-25{fill:#d6b6ac}.cls-26{fill:#b0908e}.cls-27{fill:#712f21}.cls-28{fill:#24201b}.cls-29{fill:#161113}.cls-30{fill:#5a4046}.cls-31{fill:#d1b195}.cls-33{fill:#fbddc4}.cls-34{fill:#a66642}.cls-35{fill:#cb7964}</style></defs><rect width="680" height="147.05" class="cls-1"/><path d="M419.9,59.5l-3.4,86.7,307.7,5.1,3.4-86.7Z" class="cls-2"/><path d="M175.1,56.1l183.6,8.5,11.9-255L187-198.9Z" class="cls-3"/><path d="M159.8,112.2l98.6,408,255-62.9-98.6-408Z" class="cls-4"/><path d="M15.3,91.8l66.3,64.6L226.1,8.5,159.8-54.4Z" class="cls-5"/><path d="M588.2,42.5,887.4,374l300.9-273.7L889.1-229.5Z" class="cls-6"/><path d="M542.3,62.9,54.4,248.2l76.5,202.3L618.8,265.2Z" class="cls-7"/><path d="M71.4,79.9l3.4,134.3,183.6-5.1L255,74.8Z" class="cls-8"/><path d="M93.5,51l47.6,37.4,210.8-272L304.3-221Z" class="cls-9"/><path d="M559.3,61.2,545.7,496.4l108.8,3.4L668.1,64.6Z" class="cls-10"/><path d="M355.3,42.5l136,34L504.9,17l-136-32.3Z" class="cls-11"/><path d="M74.8,52.7l11.9,6.8,17-35.7L91.8,17Z" class="cls-12"/><path d="M44.2,11.9,56.1,392.7,102,391,90.1,10.2Z" class="cls-13"/><path d="M494.7,8.5l74.8,56.1L907.8-382.5,833-438.6Z" class="cls-14"/><path d="M202.3,6.8,166.6,35.7,275.4,159.8l35.7-28.9Z" class="cls-15"/><path d="M360.4,64.6l-188.7,102,137.7,255,188.7-102Z" class="cls-16"/><path d="M11.9,10.2-134.3,20.4l17,214.2L27.2,224.4Z" class="cls-17"/><path d="M630.7,68l45.9,5.1L690.2-59.5l-45.9-5.1Z" class="cls-18"/><path d="M657.9,108.8,914.6,404.6l175.1-151.3L833-40.8Z" class="cls-19"/><path d="M419.9,69.7,295.8,253.3l232.9,153L652.8,222.7Z" class="cls-20"/><path d="M214.2,6.8,341.7,90.1,442-66.3,314.5-149.6Z" class="cls-21"/><path d="M397.8,73.1l-30.6-3.4L324.7,464.1l30.6,3.4Z" class="cls-22"/><path d="M438.6,105.4l11.9,5.1,88.4-227.8L527-122.4Z" class="cls-23"/><path d="M6.8,139.4l-10.2,3.4,28.9,66.3,10.2-3.4Z" class="cls-24"/><path d="M567.8,125.8l-25.5,28.9L732.7,321.3l25.5-28.9Z" class="cls-25"/><path d="M83.3,52.7-81.6,280.5l17,10.2L98.6,62.9Z" class="cls-26"/><path d="M229.5,88.4-40.8,387.6l28.9,23.8L256.7,112.2Z" class="cls-27"/><path d="M515.1,40.8l5.1,110.5,32.3-3.4L547.4,37.4Z" class="cls-28"/><path d="M637.5,130.9l105.4,544,377.4-73.1-105.4-544Z" class="cls-29"/><path d="M81.6,25.5l-770.1,1.7,1.7,44.2L81.6,69.7Z" class="cls-30"/><path d="M119,0,249.9,28.9l37.4-178.5L156.4-178.5Z" class="cls-31"/><path d="M595,134.3,440.3,309.4,569.5,419.9,724.2,244.8Z" class="cls-32"/><path d="M96.9,62.9,197.2,76.5V64.6L96.9,51Z" class="cls-33"/><path d="M569.5,25.5l23.8,35.7,85-56.1-23.8-34Z" class="cls-34"/><path d="M129.2,108.8l-51,37.4L198.9,297.5l51-37.4Z" class="cls-35"/></svg>