<svg xmlns="http://www.w3.org/2000/svg" id="Layer_1" data-name="Layer 1" viewBox="0 0 690.5 468.65"><defs><style>.cls-1{fill:#891826}.cls-2{fill:#ee5e6c}.cls-10,.cls-11,.cls-12,.cls-13,.cls-14,.cls-15,.cls-16,.cls-17,.cls-18,.cls-19,.cls-2,.cls-20,.cls-21,.cls-22,.cls-23,.cls-24,.cls-25,.cls-26,.cls-27,.cls-28,.cls-29,.cls-3,.cls-30,.cls-31,.cls-32,.cls-33,.cls-34,.cls-35,.cls-4,.cls-5,.cls-6,.cls-7,.cls-8,.cls-9{fill-opacity:.5}.cls-3{fill:#000500}.cls-4{fill:#b41727}.cls-5{fill:#200204}.cls-6{fill:#540508}.cls-7{fill:#2e0000}.cls-8{fill:#2b0600}.cls-9{fill:#ea0e36}.cls-10{fill:#d6564e}.cls-11{fill:#dd1c3b}.cls-12{fill:#630000}.cls-13{fill:#5d020b}.cls-14{fill:#e21737}.cls-15{fill:#e6515e}.cls-16{fill:#b4061a}.cls-17{fill:#001500}.cls-18{fill:#eb3f42}.cls-19{fill:#c92531}.cls-20{fill:#ff505d}.cls-21{fill:#c9041b}.cls-22{fill:#e7ee94}.cls-23{fill:#390c0d}.cls-24{fill:#ff647c}.cls-25{fill:#032e00}.cls-26{fill:#410000}.cls-27{fill:#ff4f70}.cls-28{fill:#be1d2f}.cls-30{fill:#410c0a}.cls-31{fill:#5d101a}.cls-32{fill:#df2641}.cls-33{fill:#ff89a3}.cls-34{fill:#d84e4c}.cls-35{fill:#300906}</style></defs><rect width="690.5" height="468.65" class="cls-1"/><path d="M604.19,347l103.57,210.6,742.29-362.51L1346.48-13.81Z" class="cls-2"/><path d="M576.57,324.54l269.29,29.34,6.91-72.5L583.47,252Z" class="cls-3"/><path d="M51.79,217.51l272.75,164L719.85-276.2l-272.75-164Z" class="cls-4"/><path d="M486.8,331.44l6.91,38L763,317.63l-6.9-38Z" class="cls-5"/><path d="M183,226.14,77.68,221,65.6,523.05l105.3,5.18Z" class="cls-6"/><path d="M366,279.65l57,51.79,84.59-96.67-57-51.79Z" class="cls-7"/><path d="M138.1,6.91l-324.54-57L-212.33,98.4l322.81,57Z" class="cls-8"/><path d="M561,67.32l215.78,53.52,19-79.41L580-10.36Z" class="cls-9"/><path d="M94.94,177.8,240,447.1l13.81-8.63-145-269.3Z" class="cls-10"/><path d="M189.89,241.68,167.45,276.2l307.27,183,22.44-34.52Z" class="cls-11"/><path d="M153.64,157.09l63.87,53.51,107-131.19L260.66,25.89Z" class="cls-12"/><path d="M466.09,88l-13.81,107L680.14,221l13.81-107Z" class="cls-13"/><path d="M0,424.66l46.61,36.25,82.86-108.75L82.86,315.9Z" class="cls-14"/><path d="M592.1,360.79l3.46,48.33,464.36-34.52-3.45-48.34Z" class="cls-15"/><path d="M422.93,300.37l-138.1,12.08,41.43,440.2,138.1-12.09Z" class="cls-16"/><path d="M221,398.76l72.5,6.91L298.64,347l-72.5-6.91Z" class="cls-17"/><path d="M267.57,79.41l46.61,31.07L605.91-329.71l-46.6-31.08Z" class="cls-18"/><path d="M58.69,210.6l10.36,32.8,158.82-51.79-10.36-32.79Z" class="cls-19"/><path d="M145,91.49l53.51-10.36L124.29-376.32,70.78-366Z" class="cls-20"/><path d="M24.17,8.63l-183,243.4,36.26,24.17L58.69,32.8Z" class="cls-21"/><path d="M272.75,20.72l32.8,12.08L341.8-67.32,309-79.41Z" class="cls-22"/><path d="M158.82,245.13l-300.37,41.43L-131.2,347l298.65-41.43Z" class="cls-23"/><path d="M134.65,12.08l-20.72,91.5,34.53,6.9L169.17,19Z" class="cls-24"/><path d="M183,13.81l84.59,27.62L366-260.66l-84.59-27.62Z" class="cls-25"/><path d="M309,160.54l34.52,34.53,57-57L366,103.58Z" class="cls-26"/><path d="M628.36,393.59,901.1,707.76l150.19-131.19L778.54,262.39Z" class="cls-27"/><path d="M74.23,231.32l-145,231.32,27.62,15.53L100.12,246.85Z" class="cls-28"/><path d="M353.88,255.49l1.73,32.79,67.32-8.63-1.72-32.8Z" class="cls-29"/><path d="M212.33,208.88l44.88,15.53,38-113.93L250.31,94.94Z" class="cls-30"/><path d="M348.7,60.42l84.59,25.89,126-400.49-84.59-25.89Z" class="cls-31"/><path d="M621.45,120.84l-6.9,22.44,265.84,72.5,6.9-22.44Z" class="cls-32"/><path d="M184.71,288.28l19,6.91L236.5,202l-19-6.9Z" class="cls-33"/><path d="M215.78,385l-72.5,177.81,32.8,13.81,72.5-177.81Z" class="cls-34"/><path d="M536.86,274.47,516.15,347l112.21,31.07,20.71-72.5Z" class="cls-35"/></svg>