<svg xmlns="http://www.w3.org/2000/svg" xmlns:xlink="http://www.w3.org/1999/xlink" style="enable-background:new 0 0 843.5 215.5" id="Layer_1" x="0" y="0" version="1.1" viewBox="0 0 843.5 215.5" xml:space="preserve"><style type="text/css">.st0{fill:#3c402b}.st1{filter:url(#g0.6)}.st2,.st3{opacity:.5;fill:#cb915b}.st3{fill:#ab9c9b}.st4,.st5{fill:#110c0c;fill-opacity:.5}.st5{fill:#000a0e}.st6{fill:#c8a365}.st6,.st7,.st8,.st9{fill-opacity:.5}.st7{fill:#747b50}.st8{fill:#d08375}.st9{fill:#170b0e}.st10{opacity:.5;fill:#5b6f3c}.st11{fill:#c1cda3}.st11,.st12{fill-opacity:.5}.st13{filter:url(#g1)}.st14{opacity:.5;fill:#3a1a14}.st15,.st16{opacity:.5;fill:#06130e}.st16{fill:#79b966}.st17,.st18{fill:#2a0912;fill-opacity:.5}.st18{fill:#dc6f52}.st19{opacity:.5;fill:#36251b}.st20{fill:#aaa094}.st20,.st21,.st22{fill-opacity:.5}.st21{fill:#191611}.st22{fill:#ea8943}.st23{opacity:.5;fill:#3b281c}.st24{fill:#281915;fill-opacity:.5}.st25{fill:#1a1010}.st25,.st26,.st27{fill-opacity:.5}.st26{fill:#c4cf97}.st27{fill:#fff17f}.st28{opacity:.5;fill:#fac77f}.st29{filter:url(#g10)}.st30{opacity:.5;fill:#3d0000}.st31,.st32{fill:#ded192;fill-opacity:.5}.st32{fill:#987848}</style><filter id="g10"><feGaussianBlur stdDeviation="10"/></filter><filter id="g1"><feGaussianBlur stdDeviation="1"/></filter><filter id="g0.6"><feGaussianBlur stdDeviation=".6"/></filter><rect width="1100.3" height="215.5" x="0" y="0" class="st0"/><g class="st1"><polygon points="347.9 48.5 347.9 113.9 759.2 109.7 759.2 44.3" class="st2"/></g><g class="st1"><polygon points="413.3 116 185.6 269.9 402.8 592.6 630.5 438.6" class="st3"/></g><path d="M613.6,6.3L449.2,717l109.7,25.3L723.3,31.6L613.6,6.3z" class="st4"/><path d="M225.6,73.8l33.7,324.7l107.5-12.7L333.2,61.2L225.6,73.8z" class="st5"/><path d="M516.6,44.3l-54.8,12.7l111.8,472.4l54.8-12.7L516.6,44.3z" class="st6"/><path d="M426,12.7l379.6,168.7l50.6-116L476.6-101.2L426,12.7z" class="st7"/><path d="M341.6,177.1l42.2,8.4l147.6-653.7l-42.2-8.4L341.6,177.1z" class="st8"/><path d="M567.3,97l-126.5,156l459.7,373.2l126.5-156L567.3,97z" class="st9"/><g class="st1"><polygon points="265.7 25.3 449.2 90.7 506.1 -65.4 322.6 -130.7" class="st10"/></g><path d="M710.6,2.1l-16.9,263.6l38,2.1L748.6,4.2L710.6,2.1z" class="st11"/><path d="M750.7,181.4l38,248.8l419.6-69.6l-38-248.8L750.7,181.4z" class="st12"/><g class="st13"><polygon points="223.5 46.4 35.8 118.1 219.3 582 407 510.3" class="st14"/></g><g class="st1"><polygon points="748.6 52.7 993.2 261.5 1242.1 -33.7 997.4 -242.5" class="st15"/></g><g class="st1"><polygon points="257.3 27.4 269.9 52.7 497.7 -63.3 485 -88.6" class="st16"/></g><path d="M417.5,82.2l196.1,485l33.7-14.8l-196.1-485L417.5,82.2z" class="st17"/><path d="M50.6,183.5L-19,295.2l213,137.1l69.6-111.8L50.6,183.5z" class="st18"/><g class="st1"><polygon points="107.5 181.4 215.1 219.3 291 2.1 183.5 -33.7" class="st19"/></g><path d="M312.1,166.6l141.3,151.8l59-56.9L371.1,109.7L312.1,166.6z" class="st20"/><path d="M655.8,23.2l16.9,116l54.8-8.4l-16.9-116L655.8,23.2z" class="st21"/><path d="M126.5,33.7L69.6,44.3L75.9,78l56.9-10.5L126.5,33.7z" class="st22"/><g class="st13"><polygon points="565.1 50.6 674.8 170.8 742.3 107.5 632.6 -10.5" class="st23"/></g><path d="M143.4,185.6l29.5,19l291-476.6l-29.5-19L143.4,185.6z" class="st24"/><path d="M438.6,128.6L-10.5,792.9l23.2,14.8l449.2-664.3L438.6,128.6z" class="st25"/><path d="M710.6,99.1l31.6,4.2l56.9-347.9l-31.6-4.2L710.6,99.1z" class="st26"/><ellipse cx="520.9" cy="78" class="st27" rx="59" ry="31.6" transform="matrix(0.9687 -0.2483 0.2483 0.9687 -3.0591 131.7977)"/><g class="st13"><ellipse cx="662.1" cy="82.2" class="st28" rx="10.5" ry="40.1" transform="matrix(0.817 -0.5766 0.5766 0.817 73.7469 396.8643)"/></g><g class="st29"><ellipse cx="419.6" cy="73.8" class="st30" rx="12.7" ry="35.8" transform="matrix(0.996 -8.948764e-02 8.948764e-02 0.996 -4.9211 37.8488)"/></g><ellipse cx="797.1" cy="156" class="st31" rx="27.4" ry="21.1" transform="matrix(0.9668 -0.2554 0.2554 0.9668 -13.4178 208.7732)"/><ellipse cx="185.6" cy="38" class="st32" rx="40.1" ry="19" transform="matrix(0.7907 -0.6122 0.6122 0.7907 15.5998 121.5466)"/></svg>