<svg xmlns="http://www.w3.org/2000/svg" width="843.5" height="626.361" clip-path="url(#clip)" viewBox="0 0 303 225" style="max-height:555.5px"><defs><clipPath id="clip" clipPathUnits="objectBoundingBox"><rect width="303" height="225" x="0" y="0"/></clipPath></defs><rect width="303" height="225" x="0" y="0" fill="#3C402B"/><filter id="g0.6"><feGaussianBlur stdDeviation=".6"/></filter><filter id="g1"><feGaussianBlur stdDeviation="1"/></filter><filter id="g10"><feGaussianBlur stdDeviation="10"/></filter><path fill="#FFF587" fill-opacity=".5" d="M175,152L300,167L311,79L186,64Z"/><path fill="#FFF" fill-opacity=".5" d="M105,172L42,187L73,311L136,296Z"/><path fill="#F7836C" fill-opacity=".5" d="M51,37L136,37L136,215L51,215Z" filter="url(#g1)"/><path fill="#450003" fill-opacity=".5" d="M133,101L216,101L216,201L133,201Z"/><path fill="#FFCA76" fill-opacity=".5" d="M206,129L279,228L360,167L287,68Z" filter="url(#g1)"/><path fill="#E0FF9B" fill-opacity=".5" d="M-62,42L-6,-3L37,-12L66,62Z" filter="url(#g0.6)"/><path fill="#5BA152" fill-opacity=".5" d="M203,89L314,32L145,-304L34,-247Z" filter="url(#g1)"/><path fill="#96D573" fill-opacity=".5" d="M243,35L291,49L316,-31L268,-45Z" filter="url(#g0.6)"/><path fill="#F9FFEC" fill-opacity=".5" d="M76,190L38,214L192,450L230,426Z" filter="url(#g1)"/><path fill="#FFDE88" fill-opacity=".5" d="M183,96L188,118L279,97L274,75Z" filter="url(#g1)"/><path fill="#340203" fill-opacity=".5" d="M226,180L128,86L170,54L207,116Z"/><path fill="#435432" fill-opacity=".5" d="M64,-4L235,-4L235,76L64,76Z" filter="url(#g0.6)"/><path fill="#FF7069" fill-opacity=".5" d="M106,173L91,121L120,47L148,134Z" filter="url(#g1)"/><path fill="#000309" fill-opacity=".5" d="M42,88L-157,104L-147,216L51,200Z" filter="url(#g1)"/><path fill="#89829F" fill-opacity=".5" d="M121,242L79,209L90,160L138,197Z" filter="url(#g1)"/><path fill="#001600" fill-opacity=".5" d="M-4,59L7,32L24,31L14,51Z"/><path fill="#B48856" fill-opacity=".5" d="M110,52L155,31L178,41L132,73Z"/><path fill="#620900" fill-opacity=".5" d="M76,77L95,77L95,171L76,171Z" filter="url(#g1)"/><path fill="#1F0C14" fill-opacity=".5" d="M347,276L125,191L105,116L128,150Z"/><path fill="#327638" fill-opacity=".5" d="M1,100L44,79L87,76L60,119Z" filter="url(#g1)"/><path fill="#B1413F" fill-opacity=".5" d="M164,113L178,113L178,183L164,183Z"/><ellipse cx="138" cy="-8" fill="#88ED8B" fill-opacity=".5" rx="15" ry="25" transform="rotate(74.45914310395133,138,-8)"/><path fill="#856C52" fill-opacity=".5" d="M241,155L253,308L598,281L586,128Z" filter="url(#g0.6)"/><ellipse cx="34" cy="208" fill="#345C44" fill-opacity=".5" rx="15" ry="23" transform="rotate(63.664725242861536,34,208)"/><path fill="#FFE27F" fill-opacity=".5" d="M219,141L318,153L321,129L222,117Z"/><path fill="#000" fill-opacity=".5" d="M27,106L-9,120L14,179L50,165Z" filter="url(#g10)"/><path fill="#030E14" fill-opacity=".5" d="M194,183L33,340L139,449L300,292Z"/><path fill="#FFB351" fill-opacity=".5" d="M53,131L66,141L86,113L73,103Z" filter="url(#g10)"/><path fill="#6E4A1D" fill-opacity=".5" d="M190,127L191,135L345,101L344,93Z" filter="url(#g1)"/></svg>