<svg xmlns="http://www.w3.org/2000/svg" id="Layer_1" data-name="Layer 1" viewBox="0 0 772.5 525.26"><defs><style>.cls-1{fill:#676736}.cls-2{fill:#9c8718}.cls-10,.cls-11,.cls-12,.cls-13,.cls-14,.cls-15,.cls-16,.cls-17,.cls-18,.cls-19,.cls-2,.cls-20,.cls-21,.cls-22,.cls-23,.cls-24,.cls-25,.cls-26,.cls-27,.cls-28,.cls-29,.cls-3,.cls-30,.cls-31,.cls-32,.cls-33,.cls-34,.cls-35,.cls-4,.cls-5,.cls-6,.cls-7,.cls-8,.cls-9{fill-opacity:.5}.cls-3{fill:#394103}.cls-4{fill:#9ba492}.cls-5{fill:#877100}.cls-6{fill:#05170a}.cls-7{fill:#b89200}.cls-8{fill:#3f4c57}.cls-9{fill:#e0b200}.cls-10{fill:#0a1714}.cls-11{fill:#6d6916}.cls-12{fill:#b7b67e}.cls-13{fill:#61621c}.cls-14{fill:#54460a}.cls-15{fill:#b78c02}.cls-16{fill:#1c2819}.cls-17{fill:#4f4709}.cls-18{fill:#a28705}.cls-19{fill:#5c6661}.cls-20{fill:#565e52}.cls-21{fill:#8a7000}.cls-22{fill:#d6b101}.cls-23{fill:#646f2c}.cls-24{fill:#1d2124}.cls-25{fill:#7b7c1f}.cls-26{fill:#1c2120}.cls-27{fill:#37411d}.cls-28{fill:#8f7306}.cls-29{fill:#919827}.cls-30{fill:#00000f}.cls-31{fill:#36421c}.cls-32{fill:#141c1a}.cls-33{fill:#273119}.cls-34{fill:#7d6908}.cls-35{fill:#8b9168}</style></defs><rect width="772.5" height="525.26" class="cls-1"/><path d="M127.46,83,305.14,444.19l455.77-226L583.24-141Z" class="cls-2"/><path d="M334.11,251.06,312.86,577.44l453.85,25.11L788,276.17Z" class="cls-3"/><path d="M104.29,92.7,903.82,42.49,882.58-270.37,83-220.16Z" class="cls-4"/><path d="M341.83,9.66l-448,85,71.46,359.21,446.12-85Z" class="cls-5"/><path d="M438.39,455.77l-544.61,1.94,3.86,276.16,542.68-1.93Z" class="cls-6"/><path d="M218.23,220.16l809.19,90.77L1039,197,229.82,106.22Z" class="cls-7"/><path d="M347.62,23.17,330.24,86.91l436.47,112,17.38-63.73Z" class="cls-8"/><path d="M0,50.21-7.72,92.7,838.16,254.92l7.73-42.48Z" class="cls-9"/><path d="M546.54,457.71l-7.72,220.16,372.73,9.65,7.72-220.16Z" class="cls-10"/><path d="M144.84,127.46,98.49,434.53l411.36,57.94L556.2,185.4Z" class="cls-11"/><path d="M0,40.56,863.27,30.9l-1.93-158.36L0-117.81Z" class="cls-12"/><path d="M104.29,231.75,86.91,320.59,809.19,457.71l17.38-88.84Z" class="cls-13"/><path d="M42.49,210.51,38.62,318.66l276.17,5.79,3.87-108.15Z" class="cls-14"/><path d="M173.81,65.66l-683.66,59.87,7.73,71.46,681.73-59.87Z" class="cls-15"/><path d="M106.22,486.67V533l450-5.79V480.88Z" class="cls-16"/><path d="M730,210.51l-63.73,77.25,264.58,216.3,63.73-77.25Z" class="cls-17"/><path d="M247.2,226l-3.86,44.41,241.4,17.39,3.87-44.42Z" class="cls-18"/><path d="M496.33,52.14l268.44,85,11.59-38.63-268.44-85Z" class="cls-19"/><path d="M212.44,27,202.78,92.7l490.54,57.94L703,85Z" class="cls-20"/><path d="M173.81,156.43-129.39,197l15.45,110.08,301.27-40.56Z" class="cls-21"/><path d="M755.12,272.31l237.54-61.8-21.24-77.25-237.55,61.8Z" class="cls-22"/><path d="M388.18,339.9,280,432.6l59.87,67.59,108.15-92.7Z" class="cls-23"/><path d="M135.19,297.41v17.38l506-21.24V276.17Z" class="cls-24"/><path d="M461.57,330.24l-5.8,65.67,253,15.45,5.79-65.67Z" class="cls-25"/><path d="M154.5,278.1l-1.93,34.76,181.54,1.93L336,280Z" class="cls-26"/><path d="M384.32,469.29l3.86,44.42,386.25-40.55-3.86-44.42Z" class="cls-27"/><path d="M90.77,241.41l399.77,56L506,177.67l-399.77-56Z" class="cls-28"/><path d="M75.32,370.8l191.19,73.39L285.82,392,94.63,318.66Z" class="cls-29"/><path d="M560.06,422.94l-3.86,7.73L1232.14,703l3.86-7.72Z" class="cls-30"/><path d="M171.88,419.08,77.25,849.75,177.67,871l94.64-430.67Z" class="cls-31"/><path d="M695.25,262.65l23.17,21.24,29-32.83-23.17-21.24Z" class="cls-32"/><path d="M69.52,463.5l-7.72,83,815,57.94,7.72-83Z" class="cls-33"/><path d="M13.52,168l197,125.53,29-46.35-197-125.53Z" class="cls-34"/><path d="M347.62,57.94l222.1,21.24L581.31-42.49,359.21-63.73Z" class="cls-35"/></svg>