<svg xmlns="http://www.w3.org/2000/svg" xmlns:xlink="http://www.w3.org/1999/xlink" id="Layer_1" data-name="Layer 1" viewBox="0 0 672.5 483.36"><defs><style>.cls-1{fill:#f9fefa}.cls-2{filter:url(#g0.6)}.cls-11,.cls-13,.cls-15,.cls-18,.cls-24,.cls-28,.cls-3,.cls-7,.cls-9{opacity:.5}.cls-4{filter:url(#g1)}.cls-5{fill:#3f0300}.cls-10,.cls-12,.cls-14,.cls-16,.cls-17,.cls-19,.cls-20,.cls-21,.cls-22,.cls-23,.cls-25,.cls-26,.cls-27,.cls-29,.cls-5,.cls-6,.cls-8{fill-opacity:.5}.cls-6{fill:#de9a3b}.cls-7{fill:#c88427}.cls-8{fill:#000501}.cls-9{fill:#efa148}.cls-10{fill:#030a00}.cls-11{fill:#1d1909}.cls-12{fill:#bbbba7}.cls-13{fill:#82753a}.cls-14{fill:#eea64b}.cls-15{fill:#a6ac98}.cls-16{fill:#ff7e04}.cls-17{fill:#d05a02}.cls-18{fill:#c7c4a9}.cls-19{fill:#110c19}.cls-20{fill:#bbc4ae}.cls-21{fill:#a28b41}.cls-22{fill:#0c0c00}.cls-23{fill:#0d0f05}.cls-24{fill:#1e190e}.cls-25{fill:#453b30}.cls-26{fill:#c4af7e}.cls-27{fill:#8d856c}.cls-28{fill:#b98b4f}.cls-29{fill:#221b01}</style><filter id="g0.6" name="g0.6"><feGaussianBlur stdDeviation=".6"/></filter><filter id="g1" name="g1"><feGaussianBlur stdDeviation="1"/></filter></defs><rect width="672.5" height="483.36" class="cls-1"/><g class="cls-2"><polygon points="152.99 368.19 702.76 566.58 894.42 28.58 344.66 -168.13 152.99 368.19" class="cls-3"/></g><g class="cls-4"><polygon points="250.51 79.02 -287.49 487.56 -16.81 838.94 519.51 430.4 250.51 79.02" class="cls-3"/></g><path d="M33.62,25.22l-104.23,385,765,206.8L798.59,232Z" class="cls-5"/><path d="M238.74,87.42l417,184.94L765,21.86,348-161.4Z" class="cls-6"/><g class="cls-4"><polygon points="15.13 16.81 53.8 290.86 295.9 253.87 257.23 -18.49 15.13 16.81" class="cls-7"/></g><g class="cls-2"><polygon points="396.77 210.16 348.02 366.51 659.05 460.66 707.81 304.31 396.77 210.16" class="cls-3"/></g><path d="M176.53,28.58l-42,74L423.67,258.91l42-74Z" class="cls-8"/><g class="cls-2"><polygon points="144.59 23.54 -124.41 25.22 -121.05 274.04 146.27 272.36 144.59 23.54" class="cls-9"/></g><path d="M415.27,300.94l-543-15.13-3.37,129.46L410.22,430.4Z" class="cls-10"/><g class="cls-2"><polygon points="326.16 31.94 240.42 62.21 378.28 447.21 464.02 416.95 326.16 31.94" class="cls-11"/></g><path d="M45.39,26.9,230.33,92.47,405.18-400.14,220.24-465.71Z" class="cls-12"/><g class="cls-4"><polygon points="327.84 368.19 228.65 633.83 652.33 790.19 751.52 524.55 327.84 368.19" class="cls-13"/></g><path d="M378.28,92.47l109.28,169.8L590.12,195,480.84,25.22Z" class="cls-14"/><g class="cls-4"><polygon points="329.52 21.86 1018.84 179.89 1039.01 84.06 349.7 -72.29 329.52 21.86" class="cls-15"/></g><path d="M242.1,201.75-13.45,213.52-10.09,274l253.87-11.77Z" class="cls-16"/><g class="cls-4"><polygon points="553.13 363.15 637.19 442.17 738.07 332.89 654.01 253.87 553.13 363.15" class="cls-3"/></g><path d="M453.94,235.37l208.47,43.72,20.18-102.56L474.11,132.82Z" class="cls-17"/><g class="cls-2"><rect width="370.7" height="121.06" x="-44.97" y="-126.94" class="cls-18" transform="translate(135.07 88.8) rotate(-62.72)"/></g><path d="M354.74,31.94l-232,70.62,8.41,28.58,232-70.62Z" class="cls-19"/><path d="M255.55,33.62l136.18,5.05,15.13-311-136.18-5.05Z" class="cls-20"/><path d="M237.06,437.12l-472.43,11.77,10.08,331.21,470.75-11.77Z" class="cls-21"/><path d="M474.11,265.64V438.81L807,437.12V264Z" class="cls-22"/><path d="M327.84,193.34,75.66,361.47l50.43,74L378.28,267.32Z" class="cls-23"/><g class="cls-2"><polygon points="398.46 183.26 361.47 458.98 425.36 467.39 462.34 191.66 398.46 183.26" class="cls-24"/></g><path d="M141.22,141.22,171.49,195l274-154.67L415.27-11.77Z" class="cls-25"/><path d="M390.05,102.56l104.24,90.78,104.23-121L494.29-16.81Z" class="cls-26"/><path d="M141.22,443.85,124.41,583.39l349.7,40.35L490.92,484.2Z" class="cls-27"/><g class="cls-4"><polygon points="47.08 116.01 35.31 159.72 309.35 226.97 321.12 183.26 47.08 116.01" class="cls-28"/></g><path d="M272.36,274-190,312.71l13.45,148L284.13,422Z" class="cls-29"/></svg>